<svg width="50" height="50" viewBox="0 0 50 50" fill="none" xmlns="http://www.w3.org/2000/svg">
<g clip-path="url(#clip0_304_165)">
<path fill-rule="evenodd" clip-rule="evenodd" d="M0.585938 0.585938H49.4141V49.4141H0.585938V0.585938Z" fill="#F7DF1E"/>
<path fill-rule="evenodd" clip-rule="evenodd" d="M13.4246 41.3903L17.1613 39.1289C17.8822 40.4071 18.538 41.4885 20.1109 41.4885C21.6187 41.4885 22.5693 40.8987 22.5693 38.6045V23.0028H27.1579V38.6694C27.1579 43.422 24.3721 45.5852 20.3076 45.5852C16.6369 45.5852 14.5061 43.6841 13.4246 41.3899" fill="black"/>
<path fill-rule="evenodd" clip-rule="evenodd" d="M29.6503 40.8986L33.3865 38.7354C34.37 40.3416 35.6483 41.5214 37.9097 41.5214C39.811 41.5214 41.0234 40.5708 41.0234 39.2598C41.0234 37.6865 39.778 37.1292 37.6802 36.2118L36.5334 35.7198C33.2228 34.3107 31.0267 32.5408 31.0267 28.8042C31.0267 25.3626 33.6488 22.7404 37.746 22.7404C40.6631 22.7404 42.7608 23.7566 44.2683 26.4115L40.6957 28.7057C39.909 27.2965 39.057 26.7394 37.7461 26.7394C36.4022 26.7394 35.5499 27.5915 35.5499 28.7057C35.5499 30.0824 36.4022 30.6397 38.3686 31.492L39.5156 31.9836C43.4161 33.6553 45.6122 35.3595 45.6122 39.1942C45.6122 43.3243 42.3674 45.5856 38.0082 45.5856C33.7473 45.5856 30.994 43.5536 29.6503 40.8986" fill="black"/>
</g>
<defs>
<clipPath id="clip0_304_165">
<rect width="50" height="50" fill="white"/>
</clipPath>
</defs>
</svg>
