<?xml version="1.0"?>
<svg width="52" height="50" xmlns="http://www.w3.org/2000/svg" xmlns:svg="http://www.w3.org/2000/svg">
 <g class="layer">
  <title>Layer 1</title>
  <path d="m20.14,15.14c0,1.46 -1.3,2.65 -2.89,2.65c-1.6,0 -2.89,-1.19 -2.89,-2.65c0,-1.46 1.29,-2.64 2.89,-2.64c1.59,0 2.89,1.18 2.89,2.64z" fill="white" id="svg_2"/>
  <path d="m14.76,19.73l4.93,0l0,14.65l-4.93,0l0,-14.65z" fill="white" id="svg_3"/>
  <path d="m27.64,19.73l-4.94,0l0,14.65l4.94,0c0,0 0,-4.61 0,-7.5c0,-1.73 0.6,-3.47 3.01,-3.47c2.72,0 2.7,2.27 2.69,4.02c-0.02,2.3 0.02,4.64 0.02,6.95l4.94,0l0,-7.73c-0.04,-4.94 -1.36,-7.21 -5.68,-7.21c-2.56,0 -4.15,1.14 -4.98,2.17l0,-1.88z" fill="white" id="svg_4"/>
 </g>
</svg>