<svg width="50" height="50" viewBox="0 0 50 50" fill="none" xmlns="http://www.w3.org/2000/svg">
<path d="M5.00745 14.71L24.9999 24.705L44.9924 14.71C44.9184 13.4361 44.3602 12.2387 43.432 11.3631C42.5038 10.4874 41.276 9.99977 40 10H9.99995C8.72391 9.99977 7.49606 10.4874 6.56789 11.3631C5.63972 12.2387 5.08146 13.4361 5.00745 14.71Z" fill="white"/>
<path d="M45 20.295L25 30.295L5 20.295V35C5 36.3261 5.52678 37.5979 6.46447 38.5356C7.40215 39.4733 8.67392 40 10 40H40C41.3261 40 42.5979 39.4733 43.5355 38.5356C44.4732 37.5979 45 36.3261 45 35V20.295Z" fill="white"/>
</svg>
