<?xml version="1.0"?>
<svg width="52" height="50" xmlns="http://www.w3.org/2000/svg" xmlns:svg="http://www.w3.org/2000/svg">
 <g class="layer">
  <title>Layer 1</title>
  <path clip-rule="evenodd" d="m35.59,7.66c-0.04,0.2 -0.06,0.4 -0.06,0.62c0,2.06 1.66,3.74 3.68,3.74c2.02,0 3.66,-1.68 3.66,-3.74c0,-2.08 -1.64,-3.76 -3.66,-3.76c-0.9,0 -1.74,0.34 -2.38,0.88l-9.52,-2.4l-3.44,14.1c-4.58,0.3 -8.7,1.72 -11.8,3.86c-0.88,-0.88 -2.08,-1.42 -3.42,-1.42c-2.7,0 -4.88,2.24 -4.88,5c0,1.92 1.06,3.6 2.6,4.42c-0.1,0.6 -0.16,1.22 -0.16,1.84c0,7.6 8.76,13.76 19.56,13.76c10.8,0 19.54,-6.16 19.54,-13.76c0,-0.62 -0.06,-1.24 -0.16,-1.84c1.56,-0.82 2.62,-2.5 2.62,-4.42c0,-2.76 -2.2,-5 -4.9,-5c-1.32,0 -2.54,0.54 -3.42,1.42c-3.38,-2.34 -7.96,-3.8 -13.04,-3.92l2.68,-11l6.5,1.62zm-18.38,24.38c2.02,0 3.66,-1.68 3.66,-3.76c0,-2.06 -1.64,-3.74 -3.66,-3.74c-2.02,0 -3.68,1.68 -3.68,3.74c0,2.08 1.66,3.76 3.68,3.76zm17.1,0c2.04,0 3.68,-1.68 3.68,-3.76c0,-2.06 -1.64,-3.74 -3.68,-3.74c-2.02,0 -3.66,1.68 -3.66,3.74c0,2.08 1.64,3.76 3.66,3.76zm-16.42,3.96c-0.56,-0.38 -1.32,-0.22 -1.7,0.36c-0.38,0.56 -0.22,1.34 0.34,1.72c2.66,1.82 5.94,2.74 9.24,2.74c3.28,0 6.56,-0.92 9.22,-2.74c0.56,-0.38 0.72,-1.16 0.34,-1.72c-0.38,-0.58 -1.12,-0.74 -1.7,-0.36c-2.24,1.54 -5.06,2.3 -7.86,2.3c-1.68,0 -3.34,-0.26 -4.9,-0.8c-1.06,-0.38 -2.08,-0.86 -2.98,-1.5z" fill="white" fill-rule="evenodd" id="svg_2"/>
 </g>
</svg>