<svg width="52" height="50" viewBox="0 0 52 50" fill="none" xmlns="http://www.w3.org/2000/svg">
<path d="M26.2659 3.125C13.9591 3.125 3.95337 12.9346 3.95337 25C3.95337 37.0654 13.9591 46.875 26.2659 46.875C38.5726 46.875 48.5784 37.0654 48.5784 25C48.5784 12.9346 38.5726 3.125 26.2659 3.125Z" fill="#FC471E"/>
<path fill-rule="evenodd" clip-rule="evenodd" d="M30.6783 16.3338C30.6628 16.432 30.6548 16.5328 30.6548 16.6354C30.6548 17.672 31.4756 18.5122 32.4881 18.5122C33.5006 18.5122 34.3214 17.672 34.3214 16.6354C34.3214 15.5989 33.5006 14.7586 32.4881 14.7586C32.0369 14.7586 31.6238 14.9255 31.3044 15.2022L26.5434 14L24.8227 21.0462C22.5336 21.2004 20.4748 21.9101 18.9218 22.9815C18.4808 22.5388 17.8767 22.2658 17.2103 22.2658C15.8603 22.2658 14.7659 23.3862 14.7659 24.7682C14.7659 25.73 15.2959 26.565 16.0732 26.984C16.0171 27.2824 15.9881 27.5869 15.9881 27.8962C15.9881 31.6968 20.3658 34.7778 25.7659 34.7778C31.166 34.7778 35.5436 31.6968 35.5436 27.8962C35.5436 27.5869 35.5147 27.2824 35.4585 26.984C36.2358 26.565 36.7659 25.73 36.7659 24.7682C36.7659 23.3862 35.6715 22.2658 34.3214 22.2658C33.655 22.2658 33.0509 22.5388 32.6099 22.9815C30.918 21.8142 28.6258 21.0763 26.0893 21.0183L27.4327 15.5173L30.6783 16.3338ZM21.4881 28.5218C22.5006 28.5218 23.3214 27.6815 23.3214 26.645C23.3214 25.6085 22.5006 24.7682 21.4881 24.7682C20.4756 24.7682 19.6548 25.6085 19.6548 26.645C19.6548 27.6815 20.4756 28.5218 21.4881 28.5218ZM30.0436 28.5218C31.0562 28.5218 31.877 27.6815 31.877 26.645C31.877 25.6085 31.0562 24.7682 30.0436 24.7682C29.0311 24.7682 28.2103 25.6085 28.2103 26.645C28.2103 27.6815 29.0311 28.5218 30.0436 28.5218ZM21.8271 30.5037C21.5463 30.312 21.1668 30.3897 20.9796 30.6772C20.7924 30.9646 20.8683 31.3531 21.1491 31.5447C22.479 32.4523 24.1224 32.9061 25.7659 32.9061C27.4093 32.9061 29.0527 32.4523 30.3826 31.5447C30.6635 31.3531 30.7393 30.9646 30.5521 30.6772C30.3649 30.3897 29.9855 30.312 29.7047 30.5037C28.5801 31.2712 27.173 31.6549 25.7659 31.6549C24.9314 31.6549 24.097 31.52 23.3214 31.25C22.7892 31.0648 22.2848 30.816 21.8271 30.5037Z" fill="white"/>
</svg>
