<svg width="50" height="50" viewBox="0 0 50 50" fill="none" xmlns="http://www.w3.org/2000/svg">
<path fill-rule="evenodd" clip-rule="evenodd" d="M49.0569 22.7722L27.2262 0.943057C25.9699 -0.314353 23.9307 -0.314353 22.6727 0.943057L18.1396 5.47621L23.8901 11.2267C25.2265 10.7752 26.7588 11.078 27.8242 12.1434C28.8945 13.2154 29.1951 14.7608 28.7327 16.1016L34.2747 21.6437C35.6155 21.1818 37.1626 21.4807 38.2335 22.5533C39.7301 24.0493 39.7301 26.4742 38.2335 27.9713C36.7363 29.4685 34.3115 29.4685 32.8138 27.9713C31.688 26.8445 31.4099 25.191 31.9799 23.8041L26.8114 18.6357L26.8109 32.2368C27.1757 32.4178 27.5202 32.6586 27.8242 32.9615C29.3208 34.4575 29.3208 36.8824 27.8242 38.3806C26.327 39.8772 23.9011 39.8772 22.4061 38.3806C20.9095 36.8824 20.9095 34.4575 22.4061 32.9615C22.7759 32.5923 23.2038 32.313 23.6602 32.1254V18.3976C23.2038 18.211 22.7764 17.9334 22.4061 17.5615C21.2721 16.4292 20.9995 14.7652 21.5805 13.3729L15.9122 7.70355L0.943469 22.6712C-0.31449 23.9297 -0.31449 25.9689 0.943469 27.2263L22.7742 49.056C24.0311 50.3134 26.0697 50.3134 27.3282 49.056L49.0569 27.3278C50.3144 26.0699 50.3144 24.0296 49.0569 22.7722Z" fill="#DE4C36"/>
</svg>
