<svg width="54" height="50" viewBox="0 0 54 50" fill="none" xmlns="http://www.w3.org/2000/svg">
<path d="M15.8857 50C10.1089 50 4.72398 47.9545 0.191528 44.4253C4.03973 44.7284 10.8309 44.0024 15.0551 39.0974C8.70059 38.7424 5.83485 32.8093 5.46106 30.2738C6.00098 30.5274 8.576 30.8316 10.0296 30.1217C2.71992 27.8905 1.59854 20.0811 1.84774 17.6978C3.21831 18.8641 5.54413 19.2698 6.45784 19.1684C-0.353484 13.2353 2.09693 4.31034 3.30137 2.38337C8.18943 10.6275 15.5151 15.2578 24.5779 15.5153C24.407 14.603 24.3168 13.6531 24.3168 12.6775C24.3168 5.6759 28.9655 0 34.6999 0C37.6961 0 40.3958 1.54946 42.291 4.02791C44.2931 3.45675 47.3064 2.11971 48.7794 0.963489C48.0369 4.20892 45.7253 6.91628 44.3271 7.91973C44.3157 7.88545 44.3387 7.95387 44.3271 7.91973C45.5553 7.69356 48.8786 6.91602 50.1915 5.83164C49.5423 7.65489 47.0915 10.6864 45.0803 12.3835C45.4545 32.474 32.8281 50 15.8857 50Z" fill="white"/>
</svg>
