<svg width="50" height="50" viewBox="0 0 50 50" fill="none" xmlns="http://www.w3.org/2000/svg">
<path d="M38.6029 0V26.822C38.6029 34.3184 32.5264 40.3949 25.03 40.3949C17.5336 40.3949 11.457 34.3184 11.457 26.822V0H21.0592V26.822C21.0592 28.2406 21.816 29.5515 23.0446 30.2608C24.2732 30.9701 25.7868 30.9701 27.0154 30.2608C28.2439 29.5515 29.0008 28.2406 29.0008 26.822V0H38.6029Z" fill="#35495E"/>
<path d="M48.2046 0V26.822C48.2046 39.6212 37.8293 50 25.03 50C12.2308 50 1.85547 39.6212 1.85547 26.822V0H11.4571V26.822C11.4571 34.3184 17.5342 40.3949 25.03 40.3949C32.5258 40.3949 38.603 34.3184 38.603 26.822V0H48.2046Z" fill="#41B883"/>
</svg>
