<svg width="17" height="16" viewBox="0 0 17 16" fill="none" xmlns="http://www.w3.org/2000/svg">
<path d="M13.5 3.5H13.5083M11 3.5H11.0083M13.5 11.8333H13.5083M11 11.8333H11.0083M3.5 6H13.5C14.2766 6 14.6648 6 14.9712 5.87313C15.3795 5.70398 15.704 5.37952 15.8732 4.97114C16 4.66485 16 4.27657 16 3.5C16 2.72343 16 2.33515 15.8732 2.02886C15.704 1.62048 15.3795 1.29602 14.9712 1.12687C14.6648 1 14.2766 1 13.5 1H3.5C2.72343 1 2.33515 1 2.02886 1.12687C1.62048 1.29602 1.29603 1.62048 1.12687 2.02886C1 2.33515 1 2.72343 1 3.5C1 4.27657 1 4.66485 1.12687 4.97114C1.29603 5.37952 1.62048 5.70398 2.02886 5.87313C2.33515 6 2.72343 6 3.5 6ZM3.5 14.3333H13.5C14.2766 14.3333 14.6648 14.3333 14.9712 14.2065C15.3795 14.0373 15.704 13.7128 15.8732 13.3045C16 12.9982 16 12.6099 16 11.8333C16 11.0567 16 10.6685 15.8732 10.3622C15.704 9.95383 15.3795 9.62933 14.9712 9.46017C14.6648 9.33333 14.2766 9.33333 13.5 9.33333H3.5C2.72343 9.33333 2.33515 9.33333 2.02886 9.46017C1.62048 9.62933 1.29603 9.95383 1.12687 10.3622C1 10.6685 1 11.0567 1 11.8333C1 12.6099 1 12.9982 1.12687 13.3045C1.29603 13.7128 1.62048 14.0373 2.02886 14.2065C2.33515 14.3333 2.72343 14.3333 3.5 14.3333Z" stroke="#5CDB95" stroke-width="2" stroke-linecap="round" stroke-linejoin="round"/>
</svg>
