<svg width="19" height="19" viewBox="0 0 19 19" fill="none" xmlns="http://www.w3.org/2000/svg">
<path fill-rule="evenodd" clip-rule="evenodd" d="M9.16666 18.3334C14.2292 18.3334 18.3333 14.2293 18.3333 9.1667C18.3333 4.10405 14.2292 0 9.16666 0C4.10406 0 0 4.10405 0 9.1667C0 14.2293 4.10406 18.3334 9.16666 18.3334ZM1.68904 9.67079C1.73894 10.422 1.89957 11.1431 2.15474 11.8177L5.55289 12.4355L6.4861 11.5023L5.21228 8.9547L4.16673 8.43187L1.68904 9.67079ZM3.19973 13.7017C3.95693 14.6965 4.95721 15.4961 6.11199 16.0122L5.25083 14.0746L3.19973 13.7017ZM8.19658 16.5988C8.51408 16.6398 8.83791 16.661 9.16666 16.661C9.49549 16.661 9.81933 16.6398 10.1369 16.5987L11.5061 13.5181L10.4882 12.5002H7.84524L6.82736 13.5181L8.19658 16.5988ZM12.2215 16.0121C13.3762 15.496 14.3764 14.6964 15.1336 13.7017L13.0827 14.0746L12.2215 16.0121ZM1.80631 7.7487L3.22476 7.0395L2.84487 5.14005C2.34536 5.92265 1.98719 6.8042 1.80631 7.7487ZM4.22329 3.5338L4.90396 6.93712L5.74543 7.35785L8.33341 5.41687V4.26523L5.29733 2.7472C4.91578 2.97766 4.55645 3.24119 4.22329 3.5338ZM7.32857 1.89942L9.16674 2.81851L11.0048 1.89945C10.4167 1.75114 9.80091 1.67236 9.16666 1.67236C8.53249 1.67236 7.91674 1.75113 7.32857 1.89942ZM13.0361 2.74724L10.0001 4.26523V5.41687L12.5881 7.35785L13.4295 6.93712L14.1102 3.5339C13.777 3.24127 13.4177 2.97772 13.0361 2.74724ZM15.4886 5.14022L15.1087 7.0395L16.527 7.74862C16.3462 6.80421 15.988 5.92275 15.4886 5.14022ZM16.6443 9.6707L14.1667 8.43187L13.1212 8.9547L11.8474 11.5023L12.7806 12.4355L16.1786 11.8177C16.4337 11.1431 16.5944 10.422 16.6443 9.6707ZM6.88978 8.58295L9.16674 6.8752L11.4437 8.58295L10.3184 10.8335H8.01508L6.88978 8.58295Z" fill="#5CDB95"/>
</svg>
