<svg width="20" height="17" viewBox="0 0 20 17" fill="none" xmlns="http://www.w3.org/2000/svg">
<path fill-rule="evenodd" clip-rule="evenodd" d="M2.53083 0.412735C2.71854 0.0917348 3.0962 -0.0660486 3.45649 0.0260097C4.97985 0.415243 6.29285 1.04318 7.52628 1.97118C8.30832 1.71628 9.13945 1.57902 10.0002 1.57902C10.8609 1.57902 11.692 1.71628 12.4741 1.97118C13.7075 1.04318 15.0205 0.415243 16.5439 0.0260097C16.9042 -0.0660486 17.2819 0.0917348 17.4695 0.412735C18.0115 1.33956 18.0685 2.37099 17.9521 3.29692C17.8537 4.07947 17.6235 4.84708 17.397 5.50547C17.9961 6.7146 18.3335 8.08743 18.3335 9.53952C18.3335 10.0664 18.289 10.565 18.203 11.0351L18.9783 10.855C19.4266 10.7509 19.8745 11.0299 19.9785 11.4782C20.0827 11.9265 19.8037 12.3744 19.3554 12.4784L17.5816 12.8905C17.3231 13.3934 17.0025 13.8473 16.6266 14.2513L17.1903 14.7511C17.5347 15.0565 17.5663 15.5832 17.261 15.9275C16.9556 16.2719 16.4289 16.3035 16.0845 15.9981L15.324 15.3238C13.8403 16.2584 11.9652 16.6668 10.0002 16.6668C8.03514 16.6668 6.1601 16.2584 4.67633 15.3238L3.9158 15.9982C3.57145 16.3035 3.04477 16.2719 2.73941 15.9275C2.43406 15.5832 2.46567 15.0565 2.81003 14.7511L3.37372 14.2513C2.99788 13.8473 2.67724 13.3934 2.41878 12.8905L0.644959 12.4784C0.196659 12.3744 -0.0823396 11.9265 0.0217988 11.4782C0.125938 11.0299 0.573778 10.7509 1.02208 10.855L1.79745 11.0351C1.71145 10.565 1.66685 10.0664 1.66685 9.53952C1.66685 8.08743 2.00427 6.7146 2.60341 5.50547C2.37696 4.84708 2.14669 4.07947 2.0483 3.29692C1.93187 2.37099 1.98883 1.33956 2.53083 0.412735ZM16.3799 11.4586L13.6605 12.0903C13.3569 12.1609 13.118 12.3948 13.0414 12.697C12.9646 12.9991 13.063 13.3188 13.2961 13.5255L14.0081 14.1569C12.9242 14.7141 11.5503 15.0001 10.0002 15.0001C8.45012 15.0001 7.07614 14.7141 5.99223 14.1569L6.7042 13.5255C6.9374 13.3188 7.03571 12.9991 6.95902 12.697C6.88233 12.3949 6.64346 12.1609 6.33986 12.0904L3.6205 11.4586C3.43488 10.8999 3.33352 10.263 3.33352 9.53952C3.33352 8.23527 3.66468 7.01735 4.23974 5.97187C4.35485 5.7626 4.37463 5.51401 4.29407 5.28917C4.03797 4.57437 3.79364 3.8183 3.70194 3.08899C3.64393 2.62767 3.65154 2.21116 3.73817 1.8428C4.88301 2.21893 5.88347 2.7728 6.84981 3.55765C7.08338 3.74734 7.40105 3.7964 7.68096 3.68599C8.40279 3.40128 9.1837 3.24568 10.0002 3.24568C10.8167 3.24568 11.5976 3.40128 12.3195 3.68599C12.5993 3.7964 12.917 3.74734 13.1505 3.55765C14.1169 2.7728 15.1174 2.21893 16.2622 1.8428C16.3489 2.21116 16.3565 2.62767 16.2985 3.08899C16.2067 3.8183 15.9624 4.57437 15.7063 5.28917C15.6257 5.51401 15.6455 5.7626 15.7606 5.97187C16.3357 7.01735 16.6669 8.23527 16.6669 9.53952C16.6669 10.263 16.5655 10.8999 16.3799 11.4586ZM13.3335 9.58343C14.0239 9.58343 14.5835 9.02377 14.5835 8.33343C14.5835 7.64302 14.0239 7.08343 13.3335 7.08343C12.6432 7.08343 12.0835 7.64302 12.0835 8.33343C12.0835 9.02377 12.6432 9.58343 13.3335 9.58343ZM6.76797 9.68452C7.45832 9.68452 8.01797 9.12485 8.01797 8.43452C8.01797 7.7441 7.45832 7.18452 6.76797 7.18452C6.07761 7.18452 5.51797 7.7441 5.51797 8.43452C5.51797 9.12485 6.07761 9.68452 6.76797 9.68452ZM9.16687 10.8334C8.82979 10.8334 8.52595 11.0364 8.39695 11.3479C8.26797 11.6593 8.33929 12.0177 8.57762 12.256L9.41095 13.0894C9.73637 13.4148 10.264 13.4148 10.5895 13.0894L11.4228 12.256C11.6611 12.0177 11.7324 11.6593 11.6035 11.3479C11.4745 11.0364 11.1705 10.8334 10.8335 10.8334H9.16687Z" fill="#5CDB95"/>
</svg>
